REM DIRINDEX 1\6,1\2\7,1\2\8,1\2\9,1\3\10,1\3\11,1\4\12,1\4\13,1\4\14,1\5\15,1\5\16,1\5\17
REM DIRNAME cjc041,folder01,folder02,folder03,folder04,folder05,folder06,folder07,folder08,folder09,folder10,folder11,folder12,folder13,folder14,folder15,folder16
TITLE ""
FILE "3Q_t_0755-0770.mp3" MP3
  TRACK 01 AUDIO
    TITLE "10:cjc041_3120"
    INDEX 01 00:00:00
  TRACK 02 AUDIO
    TITLE "0:"
    INDEX 01 00:01:24
  TRACK 03 AUDIO
    TITLE "11:cjc041_3121"
    INDEX 01 00:02:04
  TRACK 04 AUDIO
    TITLE "0:"
    INDEX 01 00:03:15
  TRACK 05 AUDIO
    TITLE "10:cjc041_3122"
    INDEX 01 00:03:66
  TRACK 06 AUDIO
    TITLE "0:"
    INDEX 01 00:05:22
  TRACK 07 AUDIO
    TITLE "11:cjc041_3123"
    INDEX 01 00:06:02
  TRACK 08 AUDIO
    TITLE "0:"
    INDEX 01 00:07:00
  TRACK 09 AUDIO
    TITLE "10:cjc041_3124"
    INDEX 01 00:07:54
  TRACK 10 AUDIO
    TITLE "0:"
    INDEX 01 00:08:66
  TRACK 11 AUDIO
    TITLE "11:cjc041_3125"
    INDEX 01 00:09:49
  TRACK 12 AUDIO
    TITLE "0:"
    INDEX 01 00:10:43
  TRACK 13 AUDIO
    TITLE "10:cjc041_3126"
    INDEX 01 00:11:23
  TRACK 14 AUDIO
    TITLE "0:"
    INDEX 01 00:12:28
  TRACK 15 AUDIO
    TITLE "11:cjc041_3127"
    INDEX 01 00:13:10
  TRACK 16 AUDIO
    TITLE "0:"
    INDEX 01 00:14:11
  TRACK 17 AUDIO
    TITLE "10:cjc041_3128"
    INDEX 01 00:14:62
  TRACK 18 AUDIO
    TITLE "0:"
    INDEX 01 00:16:04
  TRACK 19 AUDIO
    TITLE "11:cjc041_3129"
    INDEX 01 00:16:61
  TRACK 20 AUDIO
    TITLE "0:"
    INDEX 01 00:17:65
  TRACK 21 AUDIO
    TITLE "10:cjc041_3130"
    INDEX 01 00:18:48
  TRACK 22 AUDIO
    TITLE "0:"
    INDEX 01 00:19:65
  TRACK 23 AUDIO
    TITLE "11:cjc041_3131"
    INDEX 01 00:20:45
  TRACK 24 AUDIO
    TITLE "0:"
    INDEX 01 00:21:70
  TRACK 25 AUDIO
    TITLE "10:cjc041_3132"
    INDEX 01 00:22:50
  TRACK 26 AUDIO
    TITLE "0:"
    INDEX 01 00:23:67
  TRACK 27 AUDIO
    TITLE "11:cjc041_3133"
    INDEX 01 00:24:45
  TRACK 28 AUDIO
    TITLE "0:"
    INDEX 01 00:27:24
  TRACK 29 AUDIO
    TITLE "10:cjc041_3134"
    INDEX 01 00:28:06
  TRACK 30 AUDIO
    TITLE "0:"
    INDEX 01 00:29:40
  TRACK 31 AUDIO
    TITLE "11:cjc041_3135"
    INDEX 01 00:30:12
  TRACK 32 AUDIO
    TITLE "0:"
    INDEX 01 00:33:22
  TRACK 33 AUDIO
    TITLE "10:cjc041_3136"
    INDEX 01 00:34:00
  TRACK 34 AUDIO
    TITLE "0:"
    INDEX 01 00:35:17
  TRACK 35 AUDIO
    TITLE "11:cjc041_3137"
    INDEX 01 00:35:70
  TRACK 36 AUDIO
    TITLE "0:"
    INDEX 01 00:36:72
  TRACK 37 AUDIO
    TITLE "10:cjc041_3138"
    INDEX 01 00:37:56
  TRACK 38 AUDIO
    TITLE "0:"
    INDEX 01 00:38:71
  TRACK 39 AUDIO
    TITLE "11:cjc041_3139"
    INDEX 01 00:39:49
  TRACK 40 AUDIO
    TITLE "0:"
    INDEX 01 00:41:69
  TRACK 41 AUDIO
    TITLE "10:cjc041_3140"
    INDEX 01 00:42:45
  TRACK 42 AUDIO
    TITLE "0:"
    INDEX 01 00:43:60
  TRACK 43 AUDIO
    TITLE "11:cjc041_3141"
    INDEX 01 00:44:42
  TRACK 44 AUDIO
    TITLE "0:"
    INDEX 01 00:45:55
  TRACK 45 AUDIO
    TITLE "10:cjc041_3142"
    INDEX 01 00:46:33
  TRACK 46 AUDIO
    TITLE "0:"
    INDEX 01 00:47:52
  TRACK 47 AUDIO
    TITLE "11:cjc041_3143"
    INDEX 01 00:48:30
  TRACK 48 AUDIO
    TITLE "0:"
    INDEX 01 00:49:35
  TRACK 49 AUDIO
    TITLE "10:cjc041_3144"
    INDEX 01 00:50:17
  TRACK 50 AUDIO
    TITLE "0:"
    INDEX 01 00:51:50
  TRACK 51 AUDIO
    TITLE "11:cjc041_3145"
    INDEX 01 00:52:26
  TRACK 52 AUDIO
    TITLE "0:"
    INDEX 01 00:54:58
  TRACK 53 AUDIO
    TITLE "10:cjc041_3146"
    INDEX 01 00:55:36
  TRACK 54 AUDIO
    TITLE "0:"
    INDEX 01 00:56:47
  TRACK 55 AUDIO
    TITLE "11:cjc041_3147"
    INDEX 01 00:57:29
  TRACK 56 AUDIO
    TITLE "0:"
    INDEX 01 00:58:44
  TRACK 57 AUDIO
    TITLE "10:cjc041_3148"
    INDEX 01 00:59:26
  TRACK 58 AUDIO
    TITLE "0:"
    INDEX 01 01:00:27
  TRACK 59 AUDIO
    TITLE "11:cjc041_3149"
    INDEX 01 01:01:03
  TRACK 60 AUDIO
    TITLE "0:"
    INDEX 01 01:03:10
  TRACK 61 AUDIO
    TITLE "10:cjc041_3150"
    INDEX 01 01:03:65
  TRACK 62 AUDIO
    TITLE "0:"
    INDEX 01 01:04:68
  TRACK 63 AUDIO
    TITLE "11:cjc041_3151"
    INDEX 01 01:05:46
  TRACK 64 AUDIO
    TITLE "0:"
    INDEX 01 01:06:53
